<svg width="45.000000" height="41.000000" viewBox="0 0 45 41" fill="none" xmlns="http://www.w3.org/2000/svg" xmlns:xlink="http://www.w3.org/1999/xlink">
	<desc>
			Created with Pixso.
	</desc>
	<defs/>
	<path id="Vector" d="M33.75 22C29.46 22 30 24.99 22 24.99C14 24.99 15.74 22 11.25 22C9 22 0 29.5 0 34.66C0 34.66 0.39 37.96 2.34 39.5C3.62 40.51 5.97 41 5.97 41L40.11 41C40.11 41 42.01 40.75 43.52 39.5C45.03 38.25 44.99 34.66 44.99 34.66C42.5 27 36 21.5 33.75 22Z" fill="#000000" fill-opacity="1.000000" fill-rule="nonzero"/>
	<path id="Vector" d="M22.5 22.5C28.71 22.5 33.75 17.46 33.75 11.25C33.75 5.03 28.71 0 22.5 0C16.28 0 11.25 5.03 11.25 11.25C11.25 17.46 16.28 22.5 22.5 22.5Z" fill="#000000" fill-opacity="1.000000" fill-rule="nonzero"/>
</svg>
